<svg width="120" height="120" viewBox="0 0 120 120" fill="none" xmlns="http://www.w3.org/2000/svg">
<rect width="120" height="120" rx="14" fill="#684FB1"/>
<path d="M75.7488 62.7695C74.7964 62.7384 73.8786 62.9326 73.0636 63.3274C72.7268 60.9577 70.6106 59.1254 67.9704 59.0394C67.0085 59.0062 66.078 59.2073 65.2555 59.6123C64.8343 57.3526 62.725 55.5709 60.194 55.4886C59.2599 55.4561 58.3586 55.6445 57.5554 56.0242V48.3651C57.5554 45.7274 55.2495 43.5064 52.4153 43.4142C50.9534 43.3641 49.5705 43.8503 48.5198 44.7765C47.4686 45.7028 46.8896 46.9474 46.8896 48.2809V65.2624C46.1569 64.9156 45.3256 64.7198 44.445 64.7198C43.0221 64.7198 41.6833 65.2253 40.6733 66.1448C39.6658 67.0649 39.1111 68.288 39.1111 69.5889V75.0928C39.1111 75.8211 39.7575 76.4112 40.5548 76.4112C41.352 76.4112 41.9984 75.8211 41.9984 75.0928V69.5889C41.9984 68.9923 42.2529 68.4312 42.7135 68.0106C43.1768 67.5887 43.7916 67.3563 44.445 67.3563C45.793 67.3563 46.8896 68.3578 46.8896 69.5888V78.0985L46.243 78.6888C45.6792 79.2038 45.6792 80.0384 46.243 80.5533C46.5248 80.8107 46.8944 80.9393 47.2638 80.9393C47.6331 80.9393 48.0027 80.8107 48.2845 80.5533L49.354 79.5767C49.6248 79.3293 49.7769 78.9941 49.7769 78.6443V48.2807C49.7769 47.6693 50.0425 47.0985 50.5247 46.6737C51.0065 46.249 51.6427 46.0249 52.3126 46.049C53.6115 46.0913 54.668 47.1302 54.668 48.3649L54.6675 74.9156C54.6675 75.6439 55.3138 76.234 56.1111 76.234C56.9084 76.234 57.5548 75.6439 57.5548 74.9156C57.5548 74.9156 57.5554 60.3585 57.5554 60.3549C57.5554 59.7434 57.8208 59.1723 58.303 58.7476C58.7844 58.3233 59.4177 58.102 60.0912 58.1234C61.389 58.1656 62.4448 59.2045 62.4448 60.4393L62.4454 74.9156C62.4454 75.6439 63.0916 76.234 63.889 76.234C64.6865 76.234 65.3327 75.6439 65.3327 74.9156C65.3327 74.9156 65.3323 63.9027 65.3323 63.901C65.3337 63.2916 65.5989 62.7225 66.0799 62.2989C66.5615 61.8742 67.1944 61.6513 67.8676 61.6744C69.1665 61.7165 70.2231 62.7561 70.2231 63.992L70.2229 74.9158C70.2229 75.6441 70.8691 76.2342 71.6665 76.2342C72.464 76.2342 73.1102 75.6441 73.1102 74.9158C73.1102 74.9158 73.1104 67.6374 73.1104 67.6362C73.1104 67.0245 73.3759 66.4533 73.8578 66.0286C74.3395 65.6041 74.9731 65.3812 75.6461 65.4044C76.9448 65.4466 78.0014 66.4855 78.0014 67.7204V87.3728C78.0014 88.4273 77.8593 89.4785 77.5787 90.4987L76.5646 94.2059C76.2268 95.4343 76.0553 96.7015 76.0553 97.9724V102.363H47.8328V97.9988C47.8328 96.5727 47.3161 95.1573 46.3774 94.0117L42.8769 89.752C42.3104 89.061 41.9984 88.206 41.9984 87.3446V81.245C41.9984 80.5167 41.352 79.9267 40.5548 79.9267C39.7575 79.9267 39.1111 80.5167 39.1111 81.245V87.3445C39.1111 88.7718 39.6277 90.1879 40.5665 91.3333L44.0669 95.593C44.6334 96.284 44.9454 97.1383 44.9454 97.9986V103.682C44.9454 104.41 45.5918 105 46.3891 105H77.4992C78.2966 105 78.9428 104.41 78.9428 103.682V97.9722C78.9428 96.9179 79.0849 95.8667 79.3655 94.8465L80.3796 91.1392C80.7174 89.9109 80.8889 88.6435 80.8889 87.3726V67.7202C80.8887 65.0824 78.5831 62.8614 75.7488 62.7695Z" fill="white"/>
<path d="M23.5901 26.7507C23.0263 27.2655 23.0263 28.1001 23.5901 28.615L26.442 31.2194C26.7238 31.4767 27.0934 31.6054 27.4628 31.6054C27.8322 31.6054 28.2017 31.4767 28.4835 31.2194L34.1872 26.0108C34.751 25.4957 34.751 24.6611 34.1872 24.1463C33.6236 23.6318 32.7094 23.6314 32.1456 24.1463L27.4628 28.4225L25.6316 26.7503C25.068 26.2358 24.1539 26.2356 23.5901 26.7507Z" fill="white"/>
<path d="M42.7762 33.6346V21.7307C42.7762 18.0194 39.4705 15 35.4077 15H32.2566C31.4593 15 30.813 15.5901 30.813 16.3184C30.813 17.0466 31.4593 17.6367 32.2566 17.6367H35.4077C37.8785 17.6367 39.8888 19.4733 39.8888 21.7307V33.6346C39.8888 35.892 37.8787 37.7286 35.4077 37.7286H22.3704C19.8985 37.7286 17.8873 35.892 17.8873 33.6346V21.7307C17.8873 19.4733 19.8985 17.6367 22.3704 17.6367H25.5195C26.3168 17.6367 26.9632 17.0466 26.9632 16.3184C26.9632 15.5901 26.3168 15 25.5195 15H22.3704C18.3064 15 15 18.0194 15 21.7307V33.6346C15 37.3459 18.3064 40.3653 22.3704 40.3653H35.4077C39.4705 40.3653 42.7762 37.3459 42.7762 33.6346Z" fill="white"/>
<path d="M53.4814 40.3655H66.5185C70.5822 40.3655 73.8882 37.3464 73.8882 33.6355V21.73C73.8882 18.0191 70.5822 15 66.5185 15H53.4814C49.4178 15 46.1118 18.0191 46.1118 21.73V33.6355C46.1118 37.3464 49.418 40.3655 53.4814 40.3655ZM48.9992 21.73C48.9992 19.4729 51.0099 17.6367 53.4814 17.6367H66.5185C68.9901 17.6367 71.0008 19.4729 71.0008 21.73V33.6355C71.0008 35.8925 68.9901 37.7287 66.5185 37.7287H53.4814C51.0099 37.7287 48.9992 35.8925 48.9992 33.6355V21.73Z" fill="white"/>
<path d="M97.6296 15H84.5923C80.5294 15 77.224 18.0194 77.224 21.7307V33.6346C77.224 37.3459 80.5294 40.3653 84.5923 40.3653H87.7433C88.5408 40.3653 89.187 39.7752 89.187 39.0469C89.187 38.3187 88.5408 37.7286 87.7433 37.7286H84.5923C82.1215 37.7286 80.1113 35.892 80.1113 33.6346V21.7307C80.1113 19.4733 82.1215 17.6367 84.5923 17.6367H97.6296C100.102 17.6367 102.113 19.4733 102.113 21.7307V33.6346C102.113 35.892 100.102 37.7286 97.6296 37.7286H94.4804C93.683 37.7286 93.0368 38.3187 93.0368 39.0469C93.0368 39.7752 93.683 40.3653 94.4804 40.3653H97.6296C101.694 40.3653 105 37.3459 105 33.6346V21.7307C105 18.0194 101.694 15 97.6296 15V15Z" fill="white"/>
</svg>
