<svg width="115" height="115" viewBox="0 0 115 115" fill="none" xmlns="http://www.w3.org/2000/svg">
<path fill-rule="evenodd" clip-rule="evenodd" d="M75.0607 75.5888C75.0607 75.5888 54.2165 66.703 45.3053 58.7383L42.5537 46.9467L13.2841 54.3441L20.7218 79.1667C21.0514 80.0667 21.589 80.7888 22.2496 81.2969C22.2496 81.2969 22.2496 81.2969 22.2534 81.2997C23.9777 82.6256 26.5393 82.4922 28.3342 80.2428L30.8678 76.9478C57.3155 96.6635 90.5398 87.5743 108.307 57.3852L107.688 51.8548L75.0607 75.5888Z" fill="#684FB1"/>
<path fill-rule="evenodd" clip-rule="evenodd" d="M40.0453 64.3715C57.702 79.3812 79.1388 83.875 103.853 56.4997C105.573 54.595 108.154 55.4786 108.309 57.386C109.555 55.2628 110.73 53.0318 111.818 50.7052C113.328 47.8462 109.867 45.913 107.728 48.2769C82.3194 76.417 63.7121 73.3416 45.8896 57.412L48.4232 54.117C50.7901 50.9152 48.8725 47.3377 45.4277 47.0365L16.9224 46.1433C13.2124 45.6849 11.1404 48.3796 12.5365 51.8473L13.2835 54.3441L37.7331 53.1502C41.1743 53.4485 43.6352 52.5035 41.2653 55.7091L38.1266 59.7912C36.6122 61.7609 38.1737 62.781 40.0453 64.3715V64.3715Z" fill="#8D6ACB"/>
</svg>
