<svg width="120" height="120" viewBox="0 0 120 120" fill="none" xmlns="http://www.w3.org/2000/svg">
<g clip-path="url(#clip0_111_6)">
<g filter="url(#filter0_d_111_6)">
<rect x="1" width="120" height="120" rx="14" fill="#4E6AB0"/>
</g>
<path d="M78.813 29.0625C74.5534 29.0625 70.4078 27.6816 67.0005 25.125L61 20.625L54.9995 25.125C51.5922 27.6816 47.4466 29.0625 43.187 29.0625H32.875V57.7458C32.875 63.4664 34.2166 68.962 36.6409 73.8839C37.7209 73.4916 38.5 72.465 38.5 71.25V68.4375C38.5 65.3353 41.0228 62.8125 44.125 62.8125C47.2272 62.8125 49.75 65.3353 49.75 68.4375V74.0625H55.2245C58.0384 74.0625 60.4895 76.0833 60.9255 78.7636C61.0155 79.3162 61.0239 79.8717 60.9536 80.4131C61.5245 80.7351 62.0392 81.1584 62.4752 81.6703C63.5467 82.9303 64.0066 84.5939 63.738 86.2378C63.6283 86.9114 63.392 87.5442 63.0531 88.1123C63.7042 89.2317 63.9531 90.5536 63.738 91.8628C63.6873 92.175 63.5833 92.4661 63.4806 92.7586L66.1427 91.6941C80.0223 86.1408 89.125 72.697 89.125 57.7458V29.0625H78.813Z" fill="#3CC8B4"/>
<path d="M63.5482 92.5195C63.5242 92.5997 63.5074 92.6812 63.4792 92.7586L63.8125 92.625L63.5482 92.5195Z" fill="#1EAA96"/>
<path d="M38.5 71.25V68.4375C38.5 67.3603 38.8192 66.3633 39.3466 65.5083C38.7995 62.9897 38.5 60.3937 38.5 57.7458V29.0625H32.875V57.7458C32.875 63.4664 34.2166 68.962 36.6409 73.8853C37.7209 73.493 38.5 72.465 38.5 71.25Z" fill="#1EAA96"/>
<path d="M58.1875 88.125H58.037C59.4377 88.125 60.737 87.1673 60.962 85.785C61.2475 84.023 59.8961 82.5 58.1875 82.5H55.375C57.0836 82.5 58.435 80.977 58.1495 79.215C57.9245 77.8327 56.6252 76.875 55.2245 76.875H47.0781H46.9375V68.4375C46.9375 66.8836 45.6789 65.625 44.125 65.625C42.5711 65.625 41.3125 66.8836 41.3125 68.4375V71.25C41.3125 74.3564 38.7939 76.875 35.6875 76.875H30.0625V99.375H55.2245C56.6252 99.375 57.9245 98.4173 58.1495 97.035C58.435 95.273 57.0836 93.75 55.375 93.75H58.037C59.4377 93.75 60.737 92.7923 60.962 91.41C61.2489 89.648 59.8961 88.125 58.1875 88.125Z" fill="#F0C8A0"/>
<path d="M42.7187 71.2499V68.4374C42.7187 67.3687 43.1307 66.4026 43.7874 65.6587C42.3953 65.8274 41.3124 66.9989 41.3124 68.4374V71.2499C41.3124 72.8545 40.6318 74.2945 39.5532 75.3196C41.3687 74.8485 42.7187 73.2103 42.7187 71.2499Z" fill="#D2AA82"/>
<path d="M21.625 74.0625H30.0625V99.375H21.625V74.0625Z" fill="#505050"/>
<path d="M21.625 74.0625H24.4375V99.375H21.625V74.0625Z" fill="#3C3C3C"/>
<path d="M57.798 78.2812C57.3114 77.4445 56.4142 76.875 55.375 76.875H46.9375V78.2812H57.798Z" fill="#D2AA82"/>
<path d="M46.9375 83.9062H60.6161C60.1295 83.0681 59.2281 82.5 58.1875 82.5H46.9375V83.9062Z" fill="#D2AA82"/>
<path d="M60.6161 89.5312C60.1295 88.6931 59.2281 88.125 58.1875 88.125H46.9375V89.5312H60.6161Z" fill="#D2AA82"/>
<path d="M57.798 95.1562C57.3114 94.3195 56.4142 93.75 55.375 93.75H46.9375V95.1562H57.798Z" fill="#D2AA82"/>
<path d="M77.875 54.375C77.875 45.0558 70.3192 37.5 61 37.5C51.6808 37.5 44.125 45.0558 44.125 54.375C44.125 57.7584 45.1305 60.9042 46.8461 63.5452C48.0512 64.2187 48.9752 65.31 49.4266 66.6333C52.4486 69.488 56.5141 71.25 61 71.25C70.3192 71.25 77.875 63.6942 77.875 54.375Z" fill="#008C78"/>
<path d="M71.5469 50.1562L58.8906 62.8125L50.4531 54.375L54.6719 50.1562L58.8906 54.375L67.3281 45.9375L71.5469 50.1562Z" fill="#FAB400"/>
</g>
<defs>
<filter id="filter0_d_111_6" x="-19" y="0" width="140" height="140" filterUnits="userSpaceOnUse" color-interpolation-filters="sRGB">
<feFlood flood-opacity="0" result="BackgroundImageFix"/>
<feColorMatrix in="SourceAlpha" type="matrix" values="0 0 0 0 0 0 0 0 0 0 0 0 0 0 0 0 0 0 127 0" result="hardAlpha"/>
<feOffset dx="-10" dy="10"/>
<feGaussianBlur stdDeviation="5"/>
<feComposite in2="hardAlpha" operator="out"/>
<feColorMatrix type="matrix" values="0 0 0 0 0 0 0 0 0 0 0 0 0 0 0 0 0 0 0.25 0"/>
<feBlend mode="normal" in2="BackgroundImageFix" result="effect1_dropShadow_111_6"/>
<feBlend mode="normal" in="SourceGraphic" in2="effect1_dropShadow_111_6" result="shape"/>
</filter>
<clipPath id="clip0_111_6">
<rect width="120" height="120" fill="white"/>
</clipPath>
</defs>
</svg>
