<svg width="47" height="47" viewBox="0 0 47 47" fill="none" xmlns="http://www.w3.org/2000/svg">
<path d="M23.5 47C36.4787 47 47 36.4787 47 23.5C47 10.5213 36.4787 0 23.5 0C10.5213 0 0 10.5213 0 23.5C0 36.4787 10.5213 47 23.5 47Z" fill="#4D76A1"/>
<path fill-rule="evenodd" clip-rule="evenodd" d="M22.6123 33.8068H24.4568C24.4568 33.8068 25.0139 33.7456 25.2983 33.439C25.5602 33.1575 25.5518 32.6288 25.5518 32.6288C25.5518 32.6288 25.5158 30.1539 26.6644 29.7894C27.7967 29.4304 29.2508 32.1814 30.7919 33.2392C31.9573 34.0397 32.8429 33.8642 32.8429 33.8642L36.9637 33.8068C36.9637 33.8068 39.1194 33.674 38.0973 31.9791C38.0135 31.8404 37.502 30.7253 35.0334 28.4339C32.4496 26.0356 32.7956 26.4235 35.9081 22.275C37.8036 19.7486 38.5615 18.2062 38.3248 17.5455C38.099 16.9163 36.7048 17.0826 36.7048 17.0826L32.065 17.1116C32.065 17.1116 31.7211 17.0646 31.466 17.2171C31.2167 17.3667 31.0563 17.7152 31.0563 17.7152C31.0563 17.7152 30.3219 19.6703 29.3425 21.3329C27.2764 24.8413 26.4503 25.0264 26.1127 24.8086C25.3273 24.3009 25.5233 22.7689 25.5233 21.6806C25.5233 18.2807 26.039 16.8631 24.5192 16.4962C24.0148 16.3743 23.6437 16.2938 22.3538 16.2809C20.6983 16.2637 19.297 16.2859 18.5036 16.6746C17.9758 16.9331 17.5686 17.5091 17.8166 17.5422C18.1233 17.5832 18.8178 17.7294 19.186 18.2309C19.6615 18.8777 19.6447 20.3305 19.6447 20.3305C19.6447 20.3305 19.9179 24.3327 19.0067 24.83C18.3813 25.171 17.5234 24.4747 15.6814 21.2919C14.7376 19.6615 14.0251 17.8593 14.0251 17.8593C14.0251 17.8593 13.8877 17.5225 13.6426 17.3424C13.3452 17.1241 12.9296 17.0546 12.9296 17.0546L8.52059 17.0835C8.52059 17.0835 7.85872 17.1019 7.61575 17.3897C7.39959 17.6457 7.59857 18.1752 7.59857 18.1752C7.59857 18.1752 11.0504 26.2509 14.9588 30.3206C18.5426 34.0519 22.6123 33.8068 22.6123 33.8068Z" fill="white"/>
</svg>
