<svg width="540" height="510" viewBox="0 0 540 510" fill="none" xmlns="http://www.w3.org/2000/svg">
<circle cx="276.5" cy="276.5" r="266.5" stroke="url(#paint0_linear_177_8)" stroke-width="20"/>
<circle cx="277" cy="277" r="196" stroke="url(#paint1_linear_177_8)" stroke-width="14"/>
<circle cx="276.5" cy="276.5" r="131.5" fill="url(#paint2_linear_177_8)" fill-opacity="0.85"/>
<path d="M238.252 278.33H255.751V278.813C255.751 279.617 256.365 280.18 257.133 280.261H296.737C297.505 280.261 298.042 279.617 298.119 278.813V278.33H315.618C316.386 278.33 317 277.687 317 276.882V271.814C317 263.931 312.318 256.932 305.257 254.278C311.013 250.738 313.009 242.935 309.632 236.902C306.255 230.869 298.81 228.777 293.053 232.317C292.209 232.799 291.441 233.443 290.751 234.086C288.448 226.122 280.466 221.618 272.867 224.031C268.262 225.479 264.655 229.26 263.273 234.086C258.438 229.179 250.763 229.34 246.081 234.328C240.554 240.28 241.936 250.095 248.767 254.197C241.706 256.852 237.024 263.931 237.024 271.734V276.802C236.87 277.687 237.484 278.33 238.252 278.33V278.33ZM295.356 277.365H258.361V271.251C258.361 261.357 265.959 253.312 275.4 253.393H278.163C287.604 253.393 295.202 261.437 295.202 271.251C295.356 271.332 295.356 277.445 295.356 277.365ZM260.74 254.278C263.043 252.91 264.885 250.738 265.96 248.083C267.034 249.451 268.339 250.577 269.797 251.381C267.264 252.186 264.962 253.473 262.89 255.243C262.199 254.841 261.508 254.519 260.74 254.278V254.278ZM283.919 251.382C285.378 250.497 286.683 249.371 287.757 248.084C288.755 250.658 290.597 252.83 292.976 254.278C292.209 254.6 291.518 254.921 290.827 255.243C288.755 253.473 286.452 252.186 283.919 251.382V251.382ZM309.709 260.633C312.548 263.609 314.16 267.631 314.16 271.814V275.515H298.042V271.251C298.042 265.862 295.893 260.633 292.9 257.335C298.579 254.68 305.257 255.967 309.709 260.633V260.633ZM291.211 237.706C294.128 233.201 300.038 232.075 304.336 235.132C308.634 238.189 309.708 244.383 306.792 248.888C303.875 253.393 297.965 254.519 293.667 251.462C291.595 250.014 290.213 247.681 289.753 245.107C290.597 243.418 291.288 240.361 291.211 237.706V237.706ZM277.856 226.283C284.303 226.846 288.908 232.719 288.525 239.154C287.988 248.244 278.777 253.312 271.332 249.129C267.571 247.038 265.192 242.855 265.192 238.43C265.192 231.432 270.948 225.64 277.856 226.283V226.283ZM245.236 243.257C245.236 237.787 249.534 233.362 254.753 233.362C257.824 233.362 260.74 234.971 262.506 237.706C262.352 240.12 262.889 242.774 263.964 245.107C262.966 250.497 258.054 254.036 252.911 253.071C248.46 252.106 245.236 248.003 245.236 243.257V243.257ZM239.556 271.814C239.556 263.046 246.311 255.967 254.677 255.967C256.749 255.967 258.898 256.45 260.817 257.334C257.823 260.633 255.674 265.861 255.674 271.251V275.515H239.556V271.814Z" fill="white"/>
<defs>
<linearGradient id="paint0_linear_177_8" x1="66.5978" y1="101.681" x2="510.187" y2="398.992" gradientUnits="userSpaceOnUse">
<stop stop-color="#FF5580" stop-opacity="0.1"/>
<stop offset="1" stop-color="#FD9490" stop-opacity="0.1"/>
</linearGradient>
<linearGradient id="paint1_linear_177_8" x1="277" y1="74" x2="277" y2="480" gradientUnits="userSpaceOnUse">
<stop stop-color="#FF5580" stop-opacity="0.35"/>
<stop offset="1" stop-color="#FD9490" stop-opacity="0.35"/>
</linearGradient>
<linearGradient id="paint2_linear_177_8" x1="347.5" y1="157.5" x2="277" y2="408" gradientUnits="userSpaceOnUse">
<stop stop-color="#FF7676"/>
<stop offset="0.0001" stop-color="#FF527F"/>
<stop offset="1" stop-color="#FD9590"/>
</linearGradient>
</defs>
</svg>
