<svg width="47" height="47" viewBox="0 0 47 47" fill="none" xmlns="http://www.w3.org/2000/svg">
<path d="M23.5 46.9998C36.4787 46.9998 47 36.4785 47 23.4999C47 10.5213 36.4787 0 23.5 0C10.5213 0 0 10.5213 0 23.4999C0 36.4785 10.5213 46.9998 23.5 46.9998Z" fill="#3964A6"/>
<path d="M8.09802 14.3647V32.6159L16.9985 23.4534L8.09802 14.3647Z" fill="white"/>
<path d="M38.902 14.3647V32.6159L30.0458 23.4903L38.902 14.3647Z" fill="white"/>
<path d="M8.77185 13.5366H38.1703L26.6162 25.5673C25.7939 26.4235 24.6581 26.9074 23.4711 26.9074C22.2841 26.9074 21.1483 26.4235 20.326 25.5673L8.77185 13.5366Z" fill="white"/>
<path d="M27.2828 26.207C26.2915 27.2392 24.9022 27.8313 23.4711 27.8313C22.0401 27.8313 20.6507 27.2394 19.6595 26.2071L17.6997 24.1665L8.77185 33.4625H38.1703L29.2425 24.1665L27.2828 26.207Z" fill="white"/>
</svg>
