<svg width="97" height="97" viewBox="0 0 97 97" fill="none" xmlns="http://www.w3.org/2000/svg">
<path fill-rule="evenodd" clip-rule="evenodd" d="M49.7975 73.1483C49.7975 73.1483 39.6706 53.3246 38.0372 41.7105L43.5722 31.0921L16.4898 18.2321L6.09112 41.6213C5.75976 42.5071 5.70188 43.3898 5.87637 44.1887C5.87637 44.1887 5.87637 44.1887 5.87735 44.1932C6.33278 46.2783 8.37029 47.7911 11.1932 47.2265L15.2555 46.3393C22.6421 77.8529 53.8317 91.9287 86.9021 80.3697L90.01 75.8129L49.7975 73.1483Z" fill="#4E6AB0"/>
<path fill-rule="evenodd" clip-rule="evenodd" d="M30.3846 42.6426C34.1205 65.0735 47.5411 81.9607 84.0822 76.8974C86.625 76.5454 88.0194 78.8369 86.9029 80.3717C89.2265 79.5569 91.5652 78.6157 93.8998 77.5479C96.8998 76.3442 95.5145 72.7076 92.3558 73.1421C54.7903 78.344 42.6071 64.3076 39.3402 41.0792L43.4025 40.1919C47.2775 39.2699 48.132 35.3664 45.7029 32.9699L24.568 14.3439C22.0387 11.6619 18.7166 12.3875 17.5358 15.8798L16.489 18.2318L35.8853 32.7307C38.3135 35.1227 40.7996 35.9605 36.9199 36.8835L31.8873 37.9827C29.4591 38.5132 29.9883 40.2654 30.3846 42.6426V42.6426Z" fill="#484F8F"/>
</svg>
