<svg width="140" height="140" viewBox="0 0 140 140" fill="none" xmlns="http://www.w3.org/2000/svg">
<g filter="url(#filter0_d_84_187)">
<rect x="20" width="120" height="120" rx="14" fill="#684FB1"/>
</g>
<path d="M95.7488 62.7695C94.7964 62.7384 93.8786 62.9326 93.0636 63.3274C92.7268 60.9577 90.6106 59.1254 87.9704 59.0394C87.0085 59.0062 86.078 59.2073 85.2555 59.6123C84.8343 57.3526 82.725 55.5709 80.194 55.4886C79.2599 55.4561 78.3586 55.6445 77.5554 56.0242V48.3651C77.5554 45.7274 75.2495 43.5064 72.4153 43.4142C70.9534 43.3641 69.5705 43.8503 68.5198 44.7765C67.4686 45.7028 66.8896 46.9474 66.8896 48.2809V65.2624C66.1569 64.9156 65.3256 64.7198 64.445 64.7198C63.0221 64.7198 61.6833 65.2253 60.6733 66.1448C59.6658 67.0649 59.1111 68.288 59.1111 69.5889V75.0928C59.1111 75.8211 59.7575 76.4112 60.5548 76.4112C61.352 76.4112 61.9984 75.8211 61.9984 75.0928V69.5889C61.9984 68.9923 62.2529 68.4312 62.7135 68.0106C63.1768 67.5887 63.7916 67.3563 64.445 67.3563C65.793 67.3563 66.8896 68.3578 66.8896 69.5888V78.0985L66.243 78.6888C65.6792 79.2038 65.6792 80.0384 66.243 80.5533C66.5248 80.8107 66.8944 80.9393 67.2638 80.9393C67.6331 80.9393 68.0027 80.8107 68.2845 80.5533L69.354 79.5767C69.6248 79.3293 69.7769 78.9941 69.7769 78.6443V48.2807C69.7769 47.6693 70.0425 47.0985 70.5247 46.6737C71.0065 46.249 71.6427 46.0249 72.3126 46.049C73.6115 46.0913 74.668 47.1302 74.668 48.3649L74.6675 74.9156C74.6675 75.6439 75.3138 76.234 76.1111 76.234C76.9084 76.234 77.5548 75.6439 77.5548 74.9156C77.5548 74.9156 77.5554 60.3585 77.5554 60.3549C77.5554 59.7434 77.8208 59.1723 78.303 58.7476C78.7844 58.3233 79.4177 58.102 80.0912 58.1234C81.389 58.1656 82.4448 59.2045 82.4448 60.4393L82.4454 74.9156C82.4454 75.6439 83.0916 76.234 83.889 76.234C84.6865 76.234 85.3327 75.6439 85.3327 74.9156C85.3327 74.9156 85.3323 63.9027 85.3323 63.901C85.3337 63.2916 85.5989 62.7225 86.0799 62.2989C86.5615 61.8742 87.1944 61.6513 87.8676 61.6744C89.1665 61.7165 90.2231 62.7561 90.2231 63.992L90.2229 74.9158C90.2229 75.6441 90.8691 76.2342 91.6665 76.2342C92.464 76.2342 93.1102 75.6441 93.1102 74.9158C93.1102 74.9158 93.1104 67.6374 93.1104 67.6362C93.1104 67.0245 93.3759 66.4533 93.8578 66.0286C94.3395 65.6041 94.9731 65.3812 95.6461 65.4044C96.9448 65.4466 98.0014 66.4855 98.0014 67.7204V87.3728C98.0014 88.4273 97.8593 89.4785 97.5787 90.4987L96.5646 94.2059C96.2268 95.4343 96.0553 96.7015 96.0553 97.9724V102.363H67.8328V97.9988C67.8328 96.5727 67.3161 95.1573 66.3774 94.0117L62.8769 89.752C62.3104 89.061 61.9984 88.206 61.9984 87.3446V81.245C61.9984 80.5167 61.352 79.9267 60.5548 79.9267C59.7575 79.9267 59.1111 80.5167 59.1111 81.245V87.3445C59.1111 88.7718 59.6277 90.1879 60.5665 91.3333L64.0669 95.593C64.6334 96.284 64.9454 97.1383 64.9454 97.9986V103.682C64.9454 104.41 65.5918 105 66.3891 105H97.4992C98.2966 105 98.9428 104.41 98.9428 103.682V97.9722C98.9428 96.9179 99.0849 95.8667 99.3655 94.8465L100.38 91.1392C100.717 89.9109 100.889 88.6435 100.889 87.3726V67.7202C100.889 65.0824 98.5831 62.8614 95.7488 62.7695Z" fill="white"/>
<path d="M43.5901 26.7507C43.0263 27.2655 43.0263 28.1001 43.5901 28.615L46.442 31.2194C46.7238 31.4767 47.0934 31.6054 47.4628 31.6054C47.8322 31.6054 48.2017 31.4767 48.4835 31.2194L54.1872 26.0108C54.751 25.4957 54.751 24.6611 54.1872 24.1463C53.6236 23.6318 52.7094 23.6314 52.1456 24.1463L47.4628 28.4225L45.6316 26.7503C45.068 26.2358 44.1539 26.2356 43.5901 26.7507Z" fill="white"/>
<path d="M62.7762 33.6346V21.7307C62.7762 18.0194 59.4705 15 55.4077 15H52.2566C51.4593 15 50.813 15.5901 50.813 16.3184C50.813 17.0466 51.4593 17.6367 52.2566 17.6367H55.4077C57.8785 17.6367 59.8888 19.4733 59.8888 21.7307V33.6346C59.8888 35.892 57.8787 37.7286 55.4077 37.7286H42.3704C39.8985 37.7286 37.8873 35.892 37.8873 33.6346V21.7307C37.8873 19.4733 39.8985 17.6367 42.3704 17.6367H45.5195C46.3168 17.6367 46.9632 17.0466 46.9632 16.3184C46.9632 15.5901 46.3168 15 45.5195 15H42.3704C38.3064 15 35 18.0194 35 21.7307V33.6346C35 37.3459 38.3064 40.3653 42.3704 40.3653H55.4077C59.4705 40.3653 62.7762 37.3459 62.7762 33.6346Z" fill="white"/>
<path d="M73.4814 40.3655H86.5185C90.5822 40.3655 93.8882 37.3464 93.8882 33.6355V21.73C93.8882 18.0191 90.5822 15 86.5185 15H73.4814C69.4178 15 66.1118 18.0191 66.1118 21.73V33.6355C66.1118 37.3464 69.418 40.3655 73.4814 40.3655ZM68.9992 21.73C68.9992 19.4729 71.0099 17.6367 73.4814 17.6367H86.5185C88.9901 17.6367 91.0008 19.4729 91.0008 21.73V33.6355C91.0008 35.8925 88.9901 37.7287 86.5185 37.7287H73.4814C71.0099 37.7287 68.9992 35.8925 68.9992 33.6355V21.73Z" fill="white"/>
<path d="M117.63 15H104.592C100.529 15 97.224 18.0194 97.224 21.7307V33.6346C97.224 37.3459 100.529 40.3653 104.592 40.3653H107.743C108.541 40.3653 109.187 39.7752 109.187 39.0469C109.187 38.3187 108.541 37.7286 107.743 37.7286H104.592C102.121 37.7286 100.111 35.892 100.111 33.6346V21.7307C100.111 19.4733 102.121 17.6367 104.592 17.6367H117.63C120.102 17.6367 122.113 19.4733 122.113 21.7307V33.6346C122.113 35.892 120.102 37.7286 117.63 37.7286H114.48C113.683 37.7286 113.037 38.3187 113.037 39.0469C113.037 39.7752 113.683 40.3653 114.48 40.3653H117.63C121.694 40.3653 125 37.3459 125 33.6346V21.7307C125 18.0194 121.694 15 117.63 15V15Z" fill="white"/>
<defs>
<filter id="filter0_d_84_187" x="0" y="0" width="140" height="140" filterUnits="userSpaceOnUse" color-interpolation-filters="sRGB">
<feFlood flood-opacity="0" result="BackgroundImageFix"/>
<feColorMatrix in="SourceAlpha" type="matrix" values="0 0 0 0 0 0 0 0 0 0 0 0 0 0 0 0 0 0 127 0" result="hardAlpha"/>
<feOffset dx="-10" dy="10"/>
<feGaussianBlur stdDeviation="5"/>
<feComposite in2="hardAlpha" operator="out"/>
<feColorMatrix type="matrix" values="0 0 0 0 0 0 0 0 0 0 0 0 0 0 0 0 0 0 0.25 0"/>
<feBlend mode="normal" in2="BackgroundImageFix" result="effect1_dropShadow_84_187"/>
<feBlend mode="normal" in="SourceGraphic" in2="effect1_dropShadow_84_187" result="shape"/>
</filter>
</defs>
</svg>
