<svg width="47" height="47" viewBox="0 0 47 47" fill="none" xmlns="http://www.w3.org/2000/svg">
<path d="M23.5 47C36.4787 47 47 36.4787 47 23.5C47 10.5213 36.4787 0 23.5 0C10.5213 0 0 10.5213 0 23.5C0 36.4787 10.5213 47 23.5 47Z" fill="#FF0000"/>
<path d="M26.759 23.5094L20.2408 27.2911V19.7092L26.759 23.5094Z" fill="url(#paint0_linear_84_237)"/>
<path d="M46.5515 28.0824C45.6449 32.6323 43.413 36.8125 40.1366 40.0972C36.8602 43.3818 32.6857 45.6242 28.138 46.5423L12.9558 31.36C13.7746 31.9984 14.784 32.3435 15.8222 32.3402H31.2023C32.4415 32.337 33.6287 31.8422 34.5035 30.9645C35.3783 30.0868 35.8691 28.898 35.8683 27.6588V19.341C35.872 18.1234 35.3993 16.9525 34.5511 16.0789L46.5515 28.0824Z" fill="url(#paint1_linear_84_237)"/>
<path d="M31.1901 14.6597H15.8099C15.1953 14.6597 14.5867 14.7808 14.0189 15.0161C13.4511 15.2514 12.9352 15.5963 12.5008 16.031C12.0663 16.4658 11.7218 16.9819 11.4868 17.5498C11.2519 18.1178 11.1312 18.7265 11.1316 19.3411V27.6589C11.1312 28.2735 11.2519 28.8822 11.4868 29.4502C11.7218 30.0181 12.0663 30.5342 12.5008 30.969C12.9352 31.4037 13.4511 31.7486 14.0189 31.9839C14.5867 32.2192 15.1953 32.3403 15.8099 32.3403H31.1901C31.8047 32.3403 32.4133 32.2192 32.9811 31.9839C33.5489 31.7486 34.0648 31.4037 34.4993 30.969C34.9337 30.5342 35.2783 30.0181 35.5132 29.4502C35.7481 28.8822 35.8688 28.2735 35.8684 27.6589V19.3411C35.8688 18.7265 35.7481 18.1178 35.5132 17.5498C35.2783 16.9819 34.9337 16.4658 34.4993 16.031C34.0648 15.5963 33.5489 15.2514 32.9811 15.0161C32.4133 14.7808 31.8047 14.6597 31.1901 14.6597ZM20.2409 27.2909V19.7091L26.7591 23.5L20.2409 27.2909Z" fill="white"/>
<defs>
<linearGradient id="paint0_linear_84_237" x1="19.0256" y1="20.9244" x2="24.1833" y2="26.0852" gradientUnits="userSpaceOnUse">
<stop stop-color="#B71C1C"/>
<stop offset="1" stop-color="#B71C1C" stop-opacity="0"/>
</linearGradient>
<linearGradient id="paint1_linear_84_237" x1="22.1641" y1="22.1394" x2="40.1292" y2="40.1014" gradientUnits="userSpaceOnUse">
<stop stop-color="#B71C1C"/>
<stop offset="1" stop-color="#B71C1C" stop-opacity="0"/>
</linearGradient>
</defs>
</svg>
